<svg width="41" height="40" viewBox="0 0 41 40" fill="none" xmlns="http://www.w3.org/2000/svg">
<rect x="1.05566" y="0.5" width="39" height="39" stroke="#DCBF76"/>
<path d="M27.222 18.3337C27.222 23.3337 20.5553 28.3337 20.5553 28.3337C20.5553 28.3337 13.8887 23.3337 13.8887 18.3337C13.8887 16.5655 14.5911 14.8699 15.8413 13.6196C17.0915 12.3694 18.7872 11.667 20.5553 11.667C22.3234 11.667 24.0191 12.3694 25.2694 13.6196C26.5196 14.8699 27.222 16.5655 27.222 18.3337Z" stroke="#DCBF76" stroke-width="1.5" stroke-linecap="round" stroke-linejoin="round"/>
<path d="M20.5557 20.833C21.9364 20.833 23.0557 19.7137 23.0557 18.333C23.0557 16.9523 21.9364 15.833 20.5557 15.833C19.175 15.833 18.0557 16.9523 18.0557 18.333C18.0557 19.7137 19.175 20.833 20.5557 20.833Z" stroke="#DCBF76" stroke-width="1.5" stroke-linecap="round" stroke-linejoin="round"/>
</svg>
