<svg width="80" height="80" viewBox="0 0 80 80" fill="none" xmlns="http://www.w3.org/2000/svg">
<circle cx="40" cy="40" r="40" fill="#DCBF76"/>
<g clip-path="url(#clip0_1_148)">
<path d="M54.999 39.787C53.9291 38.9052 52.2379 38.8295 51.128 40.0207L48.3726 42.9787C48.0163 41.8337 46.947 41 45.6865 41H40.7693C40.3962 41 40.2712 40.8575 39.6231 40.3582C37.152 38.204 33.4404 38.2109 30.9767 40.3789L29.1694 41.97C28.3569 41.54 27.4083 41.5294 26.5914 41.9375L24.5184 42.9737C24.0553 43.2055 23.8678 43.7686 24.099 44.2317L29.7237 55.481C29.9556 55.9442 30.5186 56.1316 30.9817 55.9004L33.0547 54.8636C34.0766 54.353 34.6452 53.3105 34.6084 52.2494H45.6864C47.7407 52.2494 49.7037 51.2682 50.9361 49.6246L55.4365 43.6237C56.3096 42.4606 56.1714 40.755 54.999 39.787ZM32.216 53.1868L30.9817 53.8042L26.1951 44.2317L27.4301 43.6143C27.8932 43.383 28.4556 43.5699 28.6875 44.0337L32.6354 51.9294C32.8666 52.3925 32.6791 52.9549 32.216 53.1868ZM53.9366 42.4987L49.4362 48.4996C48.5557 49.6739 47.1539 50.3745 45.6865 50.3745H33.9541L30.4411 43.348L32.2154 41.7863C33.9809 40.2332 36.6432 40.2332 38.4087 41.7863C39.4487 42.7018 40.0955 42.875 40.7692 42.875H45.6864C46.2033 42.875 46.6239 43.2956 46.6239 43.8124C46.6239 44.3292 46.2032 44.7498 45.6864 44.7498H40.8986C40.3811 44.7498 39.9612 45.1699 39.9612 45.6873C39.9612 46.2047 40.3812 46.6247 40.8986 46.6247H46.3146C47.0926 46.6247 47.8426 46.2985 48.3726 45.7292L52.4998 41.2988C52.8773 40.8938 53.456 40.9275 53.811 41.2382C54.1822 41.5631 54.2222 42.1187 53.9366 42.4987ZM43.7116 30.3982C44.3534 29.7251 44.749 28.8152 44.749 27.8133C44.749 25.7497 43.0816 24.001 40.9992 24.001C38.9325 24.001 37.187 25.7465 37.187 27.8133C37.187 28.7845 37.5676 29.7013 38.2588 30.4057C36.5446 31.3668 35.3121 33.2117 35.3121 35.3753V36.3128C35.3121 36.8302 35.7321 37.2502 36.2496 37.2502H45.6865C46.2039 37.2502 46.6239 36.8302 46.6239 36.3128V35.3753C46.6239 33.2542 45.4572 31.3806 43.7116 30.3982ZM40.9992 25.876C42.0154 25.876 42.8741 26.7634 42.8741 27.8133C42.8741 28.847 42.0329 29.6882 40.9992 29.6882C39.9493 29.6882 39.0619 28.8295 39.0619 27.8133C39.0619 26.7815 39.9674 25.876 40.9992 25.876ZM37.187 35.3753C37.187 33.3086 38.9325 31.5631 40.9992 31.5631C43.0666 31.5631 44.749 33.273 44.749 35.3753H37.187Z" fill="#434242"/>
</g>
<defs>
<clipPath id="clip0_1_148">
<rect width="32" height="32" fill="white" transform="translate(24 24)"/>
</clipPath>
</defs>
</svg>
