<svg width="80" height="80" viewBox="0 0 80 80" fill="none" xmlns="http://www.w3.org/2000/svg">
<circle cx="40" cy="40" r="40" fill="#DCBF76"/>
<g clip-path="url(#clip0_822_612)">
<path d="M54.2583 30.7223L47.1345 24.2594C46.9505 24.0925 46.711 24 46.4626 24H33.537C33.2886 24 33.049 24.0924 32.8651 24.2594L25.7412 30.7223C25.6379 30.816 25.5553 30.9304 25.4988 31.0579C25.4423 31.1855 25.4131 31.3234 25.4131 31.4629C25.4131 36.4963 26.7569 41.4363 29.2993 45.749C31.7666 49.9346 35.2936 53.4328 39.499 55.8656C39.6512 55.9537 39.8239 56.0001 39.9998 56.0001C40.1756 56.0001 40.3483 55.9537 40.5005 55.8656C44.7058 53.4328 48.2328 49.9346 50.7002 45.749C53.2425 41.4363 54.5863 36.4963 54.5863 31.4629C54.5864 31.3234 54.5572 31.1855 54.5007 31.0579C54.4442 30.9304 54.3617 30.816 54.2583 30.7223ZM39.9998 53.8372C32.3458 49.1783 27.5685 40.8565 27.4168 31.9025L33.923 26H46.0766L52.5827 31.9024C52.431 40.8564 47.6538 49.1783 39.9998 53.8372ZM45.0488 27.6625H34.9507C34.7023 27.6625 34.4628 27.7549 34.2788 27.9219L29.4561 32.2972C29.3444 32.3985 29.2571 32.5237 29.2007 32.6634C29.1443 32.8032 29.1202 32.9539 29.1302 33.1043C29.3713 36.7216 30.4358 40.3028 32.2086 43.4608C33.976 46.6093 36.4703 49.3787 39.4218 51.4694C39.595 51.5921 39.7973 51.6534 39.9998 51.6534C40.2023 51.6534 40.4047 51.5921 40.5779 51.4694C43.5293 49.3787 46.0236 46.6093 47.791 43.4608C49.5638 40.3028 50.6283 36.7216 50.8693 33.1043C50.8794 32.9539 50.8553 32.8032 50.7988 32.6634C50.7424 32.5237 50.6551 32.3985 50.5435 32.2972L45.7207 27.9219C45.5368 27.755 45.2972 27.6625 45.0488 27.6625ZM39.9998 49.4142C34.9119 45.5658 31.7206 39.8057 31.1626 33.4493L35.3368 29.6625H44.6628L48.8369 33.4493C48.2789 39.8057 45.0876 45.5658 39.9998 49.4142ZM37.9592 40.2982L44.8813 33.3763C45.2718 32.9858 45.905 32.9858 46.2955 33.3763C46.686 33.7668 46.686 34.3999 46.2955 34.7904L38.6663 42.4196C38.4788 42.6071 38.2244 42.7124 37.9592 42.7124C37.694 42.7124 37.4396 42.6071 37.2521 42.4196L34.5451 39.7125C34.1546 39.322 34.1546 38.6888 34.5451 38.2983C34.9356 37.9078 35.5687 37.9078 35.9593 38.2983L37.9592 40.2982Z" fill="#434242"/>
</g>
<defs>
<clipPath id="clip0_822_612">
<rect width="32" height="32" fill="white" transform="translate(24 24)"/>
</clipPath>
</defs>
</svg>
