<svg width="80" height="80" viewBox="0 0 80 80" fill="none" xmlns="http://www.w3.org/2000/svg">
<circle cx="40" cy="40" r="40" fill="#DCBF76"/>
<g clip-path="url(#clip0_822_308)">
<path d="M54.2571 48.1474C53.9043 47.8546 53.5051 47.6082 53.0719 47.4091C53.6302 46.761 53.9689 45.9186 53.9689 44.9981C53.9689 42.9581 52.3092 41.2984 50.2692 41.2984C48.2292 41.2984 46.5695 42.9581 46.5695 44.9981C46.5695 45.9186 46.9081 46.7609 47.4664 47.409C47.0332 47.6081 46.634 47.8546 46.2811 48.1474C46.111 48.2888 45.9507 48.4417 45.8015 48.6051C45.1397 48.1473 44.3962 47.7774 43.5928 47.5025C44.8371 46.4688 45.6308 44.9106 45.6308 43.1704C45.6308 40.0656 43.1048 37.5397 39.9999 37.5397C36.8952 37.5397 34.3693 40.0656 34.3693 43.1704C34.3693 44.9106 35.1629 46.4688 36.4071 47.5025C35.6037 47.7774 34.8602 48.1473 34.1984 48.6051C34.0492 48.4416 33.889 48.2887 33.7188 48.1473C33.3659 47.8546 32.9668 47.6081 32.5336 47.409C33.0918 46.7609 33.4305 45.9186 33.4305 44.9981C33.4305 42.958 31.7708 41.2984 29.7308 41.2984C27.6908 41.2984 26.0311 42.9581 26.0311 44.9981C26.0311 45.9186 26.3698 46.7609 26.9281 47.409C26.4948 47.6081 26.0956 47.8546 25.7428 48.1474C24.6189 49.0799 24 50.4349 24 51.9629V56H56V51.9629C56 50.4349 55.3811 49.0799 54.2571 48.1474ZM50.2692 43.1734C51.2754 43.1734 52.0939 43.992 52.0939 44.9981C52.0939 46.0042 51.2753 46.8228 50.2692 46.8228C49.2631 46.8228 48.4445 46.0042 48.4445 44.9981C48.4445 43.992 49.263 43.1734 50.2692 43.1734ZM39.9999 39.4148C42.0709 39.4148 43.7558 41.0996 43.7558 43.1704C43.7558 45.2413 42.0709 46.9261 39.9999 46.9261C37.9291 46.9261 36.2443 45.2413 36.2443 43.1704C36.2443 41.0996 37.9291 39.4148 39.9999 39.4148ZM29.7308 43.1734C30.737 43.1734 31.5555 43.992 31.5555 44.9981C31.5555 46.0042 30.7369 46.8228 29.7308 46.8228C28.7247 46.8228 27.9061 46.0042 27.9061 44.9981C27.9061 43.992 28.7247 43.1734 29.7308 43.1734ZM25.875 54.125V51.9629C25.875 49.7074 27.8115 48.6979 29.7308 48.6979C30.8871 48.6979 32.0486 49.0651 32.7897 49.8501C31.7442 51.0292 31.1224 52.4799 30.9609 54.125H25.875ZM32.847 54.125C33.3083 50.4558 36.6681 48.8011 39.9999 48.8011C43.3318 48.8011 46.6917 50.4558 47.153 54.125H32.847ZM54.125 54.125H49.0391C48.8775 52.4798 48.2556 51.0291 47.2099 49.8498C47.9513 49.0651 49.1129 48.6978 50.2691 48.6978C52.1884 48.6978 54.125 49.7074 54.125 51.9629V54.125ZM35.5587 35.8833L36.5677 36.4972L40 34.6927L43.4309 36.4964L44.4416 35.8849L43.7677 31.9553L46.5233 29.2693L46.3086 28.1045L42.3286 27.5262L40.5881 24H39.4119L37.6714 27.5262L33.6914 28.1046L33.4768 29.2694L36.2323 31.9554L35.5587 35.8833ZM38.9166 29.2401L40 27.0449L41.0834 29.2401L43.506 29.5921L41.753 31.3009L42.1668 33.7136L40 32.5744L37.8332 33.7136L38.247 31.3008L36.494 29.5921L38.9166 29.2401ZM26.1775 39.2911L27.272 39.724L29.384 38.1009L31.9128 38.9187L32.8061 38.1512L31.8776 35.5356L33.4204 33.4061L33.0174 32.2956L30.2085 32.3714L28.6057 30.1719L27.4514 30.3804L26.6832 32.981L24.0186 33.8509L24.0007 35.031L26.1737 36.5221L26.1775 39.2911ZM28.2021 34.4576L28.5501 33.2795L29.2735 34.2723L30.5014 34.2391L29.7807 35.2339L30.1917 36.3915L29.023 36.0136L28.0491 36.7621L28.0474 35.5337L27.0345 34.8387L28.2021 34.4576ZM47.1939 38.1512L48.0872 38.9187L50.6161 38.1009L52.7281 39.724L53.8226 39.2911L53.8264 36.5221L55.9994 35.031L55.9816 33.8509L53.3169 32.9811L52.5486 30.3804L51.3944 30.1719L49.7917 32.3715L46.9827 32.2957L46.5798 33.4062L48.1226 35.5357L47.1939 38.1512ZM50.7264 34.2723L51.4498 33.2795L51.7978 34.4576L52.9655 34.8387L51.9526 35.5337L51.9509 36.7621L50.977 36.0136L49.8083 36.3915L50.2192 35.2339L49.4986 34.2391L50.7264 34.2723Z" fill="#434242"/>
</g>
<defs>
<clipPath id="clip0_822_308">
<rect width="32" height="32" fill="white" transform="translate(24 24)"/>
</clipPath>
</defs>
</svg>
