<svg width="80" height="80" viewBox="0 0 80 80" fill="none" xmlns="http://www.w3.org/2000/svg">
<circle cx="40" cy="40" r="40" fill="#DCBF76"/>
<path d="M26.0029 24.9977C25.8707 24.9972 25.7398 25.0229 25.6176 25.0733C25.4954 25.1236 25.3844 25.1976 25.2909 25.2911C25.1974 25.3845 25.1234 25.4956 25.0731 25.6178C25.0227 25.74 24.9971 25.8709 24.9976 26.0031V54.0007C24.9976 54.5525 25.4511 54.9985 26.0029 54.9985H43.9625C45.2664 54.9682 45.2664 53.0256 43.9625 52.9954H26.9969V27.0046H48.9928V45.996C49.0231 47.2999 50.9657 47.2999 50.9959 45.996V26.0031C50.9964 25.8715 50.971 25.7412 50.9211 25.6195C50.8713 25.4978 50.7979 25.3871 50.7052 25.2938C50.6126 25.2004 50.5025 25.1262 50.3811 25.0754C50.2598 25.0246 50.1297 24.9982 49.9982 24.9977H26.0029ZM30.9992 35.0018H45.0018C46.3057 34.9715 46.3057 33.0289 45.0018 32.9987H30.9539C29.6008 32.9987 29.6991 35.032 31.003 35.0018H30.9992ZM30.9992 41.0034H45.0018C46.3662 41.0337 46.3662 38.9739 45.0018 39.0003H30.9539C29.6008 39.0003 29.6991 41.0337 31.003 41.0034H30.9992ZM30.9992 47.0051H40.9995C42.3033 46.9748 42.3033 45.0322 40.9995 45.002H30.9539C29.6008 45.002 29.6991 47.0391 31.003 47.0051H30.9992ZM53.1653 46.4419L49.7185 51.6084L47.5567 50.1722C46.4455 49.4277 45.3344 51.0906 46.4418 51.8351L49.4464 53.8306C49.9074 54.1368 50.5273 54.012 50.8334 53.551L54.8358 47.5569C54.909 47.4472 54.9599 47.3241 54.9855 47.1948C55.0112 47.0654 55.0111 46.9323 54.9853 46.803C54.9595 46.6737 54.9085 46.5507 54.8352 46.4411C54.7619 46.3315 54.6677 46.2374 54.558 46.1642C54.4483 46.091 54.3253 46.0401 54.1959 46.0144C54.0666 45.9887 53.9334 45.9888 53.8041 46.0146C53.6748 46.0404 53.5518 46.0914 53.4422 46.1647C53.3326 46.2381 53.2385 46.3323 53.1653 46.4419Z" fill="#434242"/>
</svg>
