<svg width="42" height="38" viewBox="0 0 42 38" fill="none" xmlns="http://www.w3.org/2000/svg">
<path d="M15.45 0L8.85 27.75L7.65 21.3C10.05 21.3 12 22.05 13.5 23.55C15 24.95 15.75 26.85 15.75 29.25C15.75 31.65 15 33.6 13.5 35.1C12 36.6 10.15 37.35 7.95 37.35C5.55 37.35 3.6 36.6 2.1 35.1C0.7 33.5 0 31.55 0 29.25C0 28.35 0.0499999 27.55 0.15 26.85C0.25 26.15 0.45 25.3 0.75 24.3C1.05 23.3 1.45 22.1 1.95 20.7L8.25 0H15.45ZM40.95 0L34.35 27.75L33.15 21.3C35.55 21.3 37.5 22.05 39 23.55C40.5 24.95 41.25 26.85 41.25 29.25C41.25 31.65 40.5 33.6 39 35.1C37.5 36.6 35.65 37.35 33.45 37.35C31.05 37.35 29.1 36.6 27.6 35.1C26.2 33.5 25.5 31.55 25.5 29.25C25.5 28.35 25.55 27.55 25.65 26.85C25.75 26.15 25.95 25.3 26.25 24.3C26.55 23.3 26.95 22.1 27.45 20.7L33.75 0H40.95Z" fill="#DCBF76"/>
</svg>
