<svg width="34" height="34" viewBox="0 0 34 34" fill="none" xmlns="http://www.w3.org/2000/svg">
<path d="M22.4417 7.27698C18.7633 6.58215 14.9434 6.58215 11.265 7.27698C9.63798 7.6244 7.58655 9.56993 7.23286 11.0986C6.59621 14.0863 6.59621 17.1436 7.23286 20.1314C7.65729 21.66 9.70871 23.6055 11.265 23.9529C11.3357 23.9529 11.4064 24.0224 11.4064 24.0919V28.4693C11.4064 28.6778 11.6894 28.8167 11.8309 28.6083L13.953 26.4543C13.953 26.4543 15.6508 24.7172 15.9337 24.4393C15.9337 24.4393 16.0045 24.3698 16.0752 24.3698C18.1974 24.4393 20.3903 24.2309 22.5124 23.8834C24.1394 23.536 26.1909 21.5905 26.5445 20.0619C27.1812 17.0741 27.1812 14.0168 26.5445 11.0291C26.1201 9.56993 24.0687 7.6244 22.4417 7.27698ZM22.5124 20.3398C22.1587 21.0346 21.7343 21.5905 21.0269 21.9379C20.8147 22.0074 20.6025 22.0769 20.3903 22.1464C20.1073 22.0769 19.8951 22.0074 19.6829 21.9379C17.4192 21.0346 15.2971 19.7839 13.5994 17.9774C12.6797 16.9351 11.9016 15.7539 11.265 14.5032C10.982 13.8779 10.6991 13.322 10.4868 12.6967C10.2746 12.1408 10.6283 11.5849 10.982 11.168C11.3357 10.7511 11.7601 10.4732 12.2553 10.2648C12.609 10.0563 12.9627 10.1953 13.2457 10.4732C13.8116 11.168 14.3775 11.8629 14.8019 12.6272C15.0849 13.1136 15.0141 13.6694 14.519 14.0168C14.3775 14.0863 14.3067 14.1558 14.1653 14.2948C14.0945 14.3643 13.953 14.4337 13.8823 14.5727C13.7408 14.7812 13.7408 14.9896 13.8116 15.1981C14.3775 16.7962 15.4386 18.0469 17.0655 18.7417C17.3485 18.8807 17.5607 18.9501 17.9144 18.9501C18.4096 18.8807 18.6218 18.3248 18.9755 18.0469C19.3292 17.7689 19.7536 17.7689 20.1781 17.9774C20.5318 18.1858 20.8854 18.4638 21.3099 18.7417C21.6636 19.0196 22.0173 19.2281 22.371 19.506C22.5832 19.645 22.6539 19.9924 22.5124 20.3398ZM19.5414 15.1286C19.3999 15.1286 19.4707 15.1286 19.5414 15.1286C19.2585 15.1286 19.1877 14.9896 19.117 14.7812C19.117 14.6422 19.117 14.4337 19.0462 14.2948C18.9755 14.0168 18.834 13.7389 18.5511 13.5305C18.4096 13.461 18.2681 13.3915 18.1266 13.322C17.9144 13.2525 17.7729 13.2525 17.5607 13.2525C17.3485 13.183 17.2778 13.0441 17.2778 12.8356C17.2778 12.6967 17.49 12.5577 17.6315 12.5577C18.7633 12.6272 19.6121 13.2525 19.7536 14.5727C19.7536 14.6422 19.7536 14.7812 19.7536 14.8506C19.7536 14.9896 19.6829 15.1286 19.5414 15.1286ZM18.834 12.0713C18.4803 11.9324 18.1266 11.7934 17.7022 11.7239C17.5607 11.7239 17.3485 11.6544 17.207 11.6544C16.9948 11.6544 16.8533 11.5155 16.9241 11.307C16.9241 11.0986 17.0656 10.9596 17.2778 11.0291C17.9852 11.0986 18.6218 11.2375 19.2585 11.5155C20.5318 12.1408 21.2391 13.183 21.4514 14.5727C21.4514 14.6422 21.4514 14.7117 21.4514 14.7812C21.4514 14.9201 21.4514 15.0591 21.4514 15.2675C21.4514 15.337 21.4514 15.4065 21.4514 15.476C21.3806 15.7539 20.8854 15.8234 20.8147 15.476C20.8147 15.4065 20.744 15.2675 20.744 15.1981C20.744 14.5727 20.6025 13.9474 20.3195 13.3915C19.8951 12.7661 19.3999 12.3493 18.834 12.0713ZM22.6539 16.2403C22.4417 16.2403 22.3002 16.0319 22.3002 15.8234C22.3002 15.4065 22.2295 14.9896 22.1587 14.5727C21.8758 12.3492 20.0366 10.5427 17.8437 10.1953C17.49 10.1258 17.1363 10.1258 16.8533 10.0563C16.6411 10.0563 16.3582 10.0563 16.2874 9.77838C16.2167 9.56993 16.4289 9.36148 16.6411 9.36148C16.7119 9.36148 16.7826 9.36148 16.7826 9.36148C16.9241 9.36148 19.6829 9.43096 16.7826 9.36148C19.7536 9.43096 22.2295 11.3765 22.7247 14.2948C22.7954 14.7812 22.8661 15.2675 22.8661 15.8234C23.0076 16.0319 22.8661 16.2403 22.6539 16.2403Z" fill="#A465CE"/>
</svg>
